<svg width="311" height="311" viewBox="0 0 311 311" fill="none" xmlns="http://www.w3.org/2000/svg">
<path d="M107.616 230.83C140.135 278.272 222.443 283.462 198.52 230.83C174.597 178.203 222.443 129.561 211.281 95.0495C199.784 59.508 39.8373 131.952 107.616 230.83Z" fill="white"/>
<path d="M235.203 239.601C259.918 252.362 271.084 218.876 255.938 207.709C240.786 196.542 210.488 226.846 235.203 239.601Z" fill="#407BFF"/>
<path d="M62.4727 171.789L80.3795 160.559" stroke="white" stroke-width="2.7" stroke-miterlimit="10" stroke-linecap="round" stroke-linejoin="round"/>
<path d="M99.6465 253.29L109.181 257.892" stroke="white" stroke-width="2.7" stroke-miterlimit="10" stroke-linecap="round" stroke-linejoin="round"/>
<path d="M273.107 188.286L266.688 196.707" stroke="white" stroke-width="2.7" stroke-miterlimit="10" stroke-linecap="round" stroke-linejoin="round"/>
<path d="M240.617 282.291H32.1113" stroke="white" stroke-width="2.7" stroke-miterlimit="10" stroke-linecap="round" stroke-linejoin="round"/>
<path d="M269.895 282.291H282.286" stroke="white" stroke-width="2.7" stroke-miterlimit="10" stroke-linecap="round" stroke-linejoin="round"/>
<path d="M179.006 228.264C179.006 232.011 174.72 235.048 169.428 235.048H165.04C159.748 235.048 155.457 232.006 155.457 228.264V204.866C155.457 201.12 159.748 198.078 165.04 198.078H169.428C174.72 198.078 179.006 201.12 179.006 204.866V228.264Z" stroke="white" stroke-width="2.7" stroke-miterlimit="10" stroke-linecap="round" stroke-linejoin="round"/>
<path d="M205.348 108.374C200.844 106.571 196.232 104.579 191.543 102.421" stroke="white" stroke-width="2.7" stroke-miterlimit="10" stroke-linecap="round" stroke-linejoin="round"/>
<path d="M147.123 76.3311C137.603 68.7505 132.657 62.1757 134.455 58.2882C138.201 50.1536 169.831 56.7527 205.1 73.0121C240.379 89.2716 265.935 109.035 262.193 117.164C259.754 122.442 245.52 121.499 226.17 115.721" stroke="white" stroke-width="2.7" stroke-miterlimit="10" stroke-linecap="round" stroke-linejoin="round"/>
<path d="M172.484 60.3194C183.331 50.1002 199.716 46.9075 214.085 53.5357C228.246 60.0619 236.424 74.2658 235.958 88.9266" stroke="white" stroke-width="2.7" stroke-miterlimit="10" stroke-linecap="round" stroke-linejoin="round"/>
<path d="M237.23 244.397L225.218 109.861C226.914 106.182 214.586 96.8813 197.695 89.0868C180.789 81.2924 165.705 77.9686 164.014 81.652C162.313 85.3354 174.642 94.6411 191.538 102.421" stroke="white" stroke-width="2.7" stroke-miterlimit="10" stroke-linecap="round" stroke-linejoin="round"/>
<path d="M86.3466 233.862L61.6367 282.291" stroke="white" stroke-width="2.7" stroke-miterlimit="10" stroke-linecap="round" stroke-linejoin="round"/>
<path d="M164.019 81.6521L108.666 190.123" stroke="white" stroke-width="2.7" stroke-miterlimit="10" stroke-linecap="round" stroke-linejoin="round"/>
<path d="M133.371 244.621V207.641L117.32 228.05H139.115" stroke="white" stroke-width="2.7" stroke-miterlimit="10" stroke-linecap="round" stroke-linejoin="round"/>
<path d="M211.368 244.621V207.641L195.312 228.05H217.117" stroke="white" stroke-width="2.7" stroke-miterlimit="10" stroke-linecap="round" stroke-linejoin="round"/>
</svg>
