<svg width="14" height="14" viewBox="0 0 14 14" fill="none" xmlns="http://www.w3.org/2000/svg">
<path fillRule="evenodd" clipRule="evenodd" d="M5.37542 7.05336V13.1072C5.37542 13.189 5.44359 13.2708 5.53903 13.2708H7.78877C7.87057 13.2708 7.95238 13.2026 7.95238 13.1072V6.94429H9.57492C9.65672 6.94429 9.7249 6.87611 9.73853 6.7943L9.87488 4.95361C9.88851 4.85817 9.80671 4.77636 9.71126 4.77636H7.93875V3.46743C7.93875 3.15383 8.18417 2.9084 8.49777 2.9084H9.75217C9.83398 2.9084 9.91578 2.84023 9.91578 2.74479V0.904095C9.91578 0.822287 9.84761 0.740479 9.75217 0.740479H7.62515C6.38439 0.740479 5.37542 1.74945 5.37542 2.99021V4.77636H4.25737C4.17556 4.77636 4.09375 4.84454 4.09375 4.93998V6.7943C4.09375 6.87611 4.16192 6.95792 4.25737 6.95792H5.37542V7.05336Z" fill="black"/>
</svg>
