<svg width="14" height="14" viewBox="0 0 14 14" fill="none" xmlns="http://www.w3.org/2000/svg">
<g clipPath="url(#clip0_592_4357)">
<path d="M9.48875 1.63087C10.2528 1.63087 10.9856 1.9344 11.5259 2.47468C12.0662 3.01497 12.3697 3.74775 12.3697 4.51182V9.48801C12.3697 10.2521 12.0662 10.9849 11.5259 11.5252C10.9856 12.0654 10.2528 12.369 9.48875 12.369H4.51256C3.74848 12.369 3.0157 12.0654 2.47541 11.5252C1.93513 10.9849 1.6316 10.2521 1.6316 9.48801V4.51182C1.6316 3.74775 1.93513 3.01497 2.47541 2.47468C3.0157 1.9344 3.74848 1.63087 4.51256 1.63087H9.48875ZM9.48875 0.583252H4.51256C3.47159 0.586361 2.47415 1.00126 1.73807 1.73734C1.00199 2.47342 0.587093 3.47086 0.583984 4.51182V9.48801C0.587093 10.529 1.00199 11.5264 1.73807 12.2625C2.47415 12.9986 3.47159 13.4135 4.51256 13.4166H9.48875C10.5297 13.4135 11.5272 12.9986 12.2632 12.2625C12.9993 11.5264 13.4142 10.529 13.4173 9.48801V4.51182C13.4142 3.47086 12.9993 2.47342 12.2632 1.73734C11.5272 1.00126 10.5297 0.586361 9.48875 0.583252Z" fill="black"/>
<path d="M10.4242 2.80957C10.2758 2.80957 10.1307 2.85358 10.0073 2.93603C9.88391 3.01848 9.78774 3.13567 9.73095 3.27278C9.67415 3.40989 9.65929 3.56076 9.68825 3.70631C9.7172 3.85187 9.78866 3.98557 9.8936 4.09051C9.99854 4.19545 10.1322 4.26691 10.2778 4.29587C10.4234 4.32482 10.5742 4.30996 10.7113 4.25317C10.8484 4.19637 10.9656 4.1002 11.0481 3.9768C11.1305 3.85341 11.1745 3.70833 11.1745 3.55993C11.1745 3.46139 11.1551 3.36382 11.1174 3.27278C11.0797 3.18174 11.0244 3.09902 10.9548 3.02935C10.8851 2.95967 10.8024 2.9044 10.7113 2.86669C10.6203 2.82898 10.5227 2.80957 10.4242 2.80957Z" fill="black"/>
<path d="M7.036 4.70436C7.49402 4.7041 7.94183 4.8397 8.32277 5.09401C8.70371 5.34831 9.00066 5.70989 9.17606 6.13299C9.35146 6.5561 9.39741 7.02173 9.30812 7.47096C9.21883 7.9202 8.9983 8.33285 8.67443 8.65672C8.35056 8.98059 7.9379 9.20112 7.48867 9.29042C7.03943 9.37971 6.57381 9.33375 6.1507 9.15835C5.72759 8.98296 5.36601 8.686 5.11171 8.30506C4.85741 7.92412 4.72181 7.47631 4.72207 7.01829C4.72311 6.40492 4.96723 5.81697 5.40095 5.38325C5.83467 4.94952 6.42262 4.7054 7.036 4.70436ZM7.036 3.65674C6.37111 3.65804 5.72153 3.8564 5.16935 4.22676C4.61716 4.59712 4.18716 5.12285 3.93367 5.73752C3.68019 6.3522 3.6146 7.02821 3.7452 7.68015C3.8758 8.33208 4.19673 8.93067 4.66742 9.40027C5.13812 9.86987 5.73746 10.1894 6.38969 10.3185C7.04193 10.4476 7.71779 10.3804 8.33187 10.1255C8.94595 9.87055 9.47068 9.43932 9.83975 8.88627C10.2088 8.33322 10.4057 7.68318 10.4054 7.01829C10.4052 6.57623 10.3179 6.13855 10.1484 5.73027C9.97893 5.32199 9.73062 4.95114 9.41767 4.63892C9.10472 4.3267 8.73329 4.07925 8.32462 3.91072C7.91594 3.74219 7.47806 3.65588 7.036 3.65674Z" fill="black"/>
</g>
<defs>
<clipPath id="clip0_592_4357">
<rect width="14" height="14" fill="white"/>
</clipPath>
</defs>
</svg>
