<svg width="14" height="14" viewBox="0 0 14 14" fill="none" xmlns="http://www.w3.org/2000/svg">
<path d="M2.91732 5.25H0.583984V12.8333H2.91732V5.25Z" fill="black"/>
<path d="M1.75065 2.91659C2.39498 2.91659 2.91732 2.39425 2.91732 1.74992C2.91732 1.10559 2.39498 0.583252 1.75065 0.583252C1.10632 0.583252 0.583984 1.10559 0.583984 1.74992C0.583984 2.39425 1.10632 2.91659 1.75065 2.91659Z" fill="black"/>
<path d="M10.3542 4.66675C9.89544 4.66803 9.44293 4.77518 9.03046 4.9802C8.61799 5.18522 8.25623 5.48279 7.97222 5.85069V5.18802H5.25V12.8334H7.97222V7.96817C7.97222 7.5995 8.11562 7.24593 8.37088 6.98524C8.62614 6.72455 8.97234 6.5781 9.33333 6.5781C9.69432 6.5781 10.0405 6.72455 10.2958 6.98524C10.551 7.24593 10.6944 7.5995 10.6944 7.96817V12.8334H13.4167V7.79441C13.4167 6.9649 13.094 6.16937 12.5197 5.58282C11.9454 4.99627 11.1664 4.66675 10.3542 4.66675Z" fill="black"/>
</svg>
