<svg width="160" height="24" viewBox="0 0 160 24" fill="none" xmlns="http://www.w3.org/2000/svg">
<g clipPath="url(#clip0_592_4197)">
<path d="M55.3063 4.91919H51.9102V23.9999H51.9196H55.3063V4.91919Z" fill="white"/>
<path d="M5.69193 5.6234C2.27677 6.73832 0 10.0537 0 13.7505V23.9999H3.15902V13.7212C3.15902 11.8337 4.52508 9.63318 6.21369 8.90947C10.0178 7.28599 13.6796 10.1417 13.6796 13.8679V24.0097H16.8386V13.8581C16.8291 8.16619 11.4882 3.73587 5.69193 5.6234Z" fill="white"/>
<path d="M84.4673 5.6234C81.0522 6.73832 78.7754 10.0537 78.7754 13.7505V23.9999H81.9344V13.7212C81.9344 11.8337 83.3005 9.63318 84.9891 8.90947C88.7932 7.28599 92.455 10.1417 92.455 13.8679V24.0097H95.614V13.8581C95.6045 8.16619 90.2541 3.73587 84.4673 5.6234Z" fill="white"/>
<path d="M107.19 5.18337C105.273 5.18337 103.414 5.85819 101.925 7.10024V0H98.7656V24H101.925V13.7213C101.925 11.8337 103.291 9.63325 104.979 8.90953C108.783 7.28606 112.445 10.1418 112.445 13.868V24.0098H115.604V13.8582C115.614 9.07579 111.838 5.18337 107.19 5.18337Z" fill="white"/>
<path d="M55.3063 0.224854H51.9102V3.15884H55.3063V0.224854Z" fill="white"/>
<path d="M122.168 4.91919H118.781V23.9999H122.168V4.91919Z" fill="white"/>
<path d="M122.168 0.224854H118.781V3.15884H122.168V0.224854Z" fill="white"/>
<path d="M48.7516 4.8606H45.3555V7.79458H48.7516V4.8606Z" fill="white"/>
<path d="M28.6004 8.53781C32.6227 8.53781 35.7248 12.6552 34.1595 17.017C33.5904 18.5818 32.3761 19.8337 30.8582 20.4205C26.6272 22.0439 22.6334 18.8361 22.6334 14.6894C22.6239 11.2958 25.3086 8.53781 28.6004 8.53781ZM28.6004 5.38867C22.7093 5.38867 18.1368 11.2077 19.9867 17.5745C20.8215 20.4498 23.0224 22.7187 25.8114 23.5794C31.9871 25.4865 37.6316 20.7725 37.6316 14.6992C37.6221 9.55493 33.5809 5.38867 28.6004 5.38867Z" fill="white"/>
<path d="M67.0418 8.53781C71.0641 8.53781 74.1662 12.6552 72.6009 17.017C72.0318 18.5818 70.8175 19.8337 69.2996 20.4205C65.0686 22.0439 61.0748 18.8361 61.0748 14.6894C61.0653 11.2958 63.75 8.53781 67.0418 8.53781ZM67.0418 5.38867C61.1507 5.38867 56.5782 11.2077 58.4281 17.5745C59.2629 20.4498 61.4638 22.7187 64.2528 23.5794C70.4285 25.4865 76.073 20.7725 76.073 14.6992C76.0635 9.55493 72.0223 5.38867 67.0418 5.38867Z" fill="white"/>
<path d="M138.977 4.91919L133.465 19.9412L127.944 4.91919H124.652L131.615 23.9999H135.306L142.155 5.24193L142.278 4.91919H138.977Z" fill="white"/>
<path d="M43.4871 15.1883V0.283691H40.3281V15.1883C40.3281 19.9707 44.1038 23.8436 48.7427 23.8534V20.6064C45.8493 20.6064 43.4871 18.181 43.4871 15.1883Z" fill="white"/>
<path d="M151.14 20.6846C148.512 20.6846 146.311 18.7384 145.675 16.1173H156.604H159.877C159.953 15.6186 160 15.11 160 14.5819C160 9.38874 156.035 5.17358 151.14 5.17358C146.245 5.17358 142.279 9.38874 142.279 14.5819C142.279 19.7751 146.245 23.9902 151.14 23.9902C154.915 23.9902 158.122 21.4865 159.402 17.956H155.826C154.811 19.6088 153.094 20.6846 151.14 20.6846ZM151.14 8.48899C153.834 8.48899 156.092 10.5428 156.651 13.2714H145.619C146.178 10.5428 148.436 8.48899 151.14 8.48899Z" fill="white"/>
</g>
<defs>
<clipPath id="clip0_592_4197">
<rect width="160" height="24" fill="white"/>
</clipPath>
</defs>
</svg>
