<svg width="14" height="14" viewBox="0 0 14 14" fill="none" xmlns="http://www.w3.org/2000/svg">
<path d="M13.7075 3.63039C13.5465 3.02801 13.0722 2.55368 12.4698 2.39268C11.3779 2.1001 7 2.1001 7 2.1001C7 2.1001 2.62207 2.1001 1.53018 2.39268C0.92791 2.55368 0.453469 3.02801 0.292496 3.63039C0 4.72217 0 7.00018 0 7.00018C0 7.00018 0 9.27813 0.292496 10.3698C0.453469 10.9722 0.92791 11.4467 1.53018 11.6076C2.62207 11.9001 7 11.9001 7 11.9001C7 11.9001 11.3779 11.9001 12.4698 11.6076C13.0722 11.4467 13.5465 10.9722 13.7075 10.3698C14 9.27813 14 7.00018 14 7.00018C14 7.00018 14 4.72217 13.7075 3.63039ZM5.59992 9.10021V4.90012L9.23716 7.00018L5.59992 9.10021Z" fill="black"/>
</svg>
